<svg width="231" height="76" viewBox="0 0 231 76" fill="none" xmlns="http://www.w3.org/2000/svg">
<rect width="231" height="76" rx="12" fill="#232323"/>
<path d="M85.18 50.49L83.61 46.05C83.5167 45.8167 83.4167 45.5433 83.31 45.23C83.21 44.9167 83.1133 44.5767 83.02 44.21C82.9267 44.5833 82.8267 44.93 82.72 45.25C82.62 45.5633 82.5233 45.8367 82.43 46.07L80.87 50.49H85.18ZM90.22 56H87.89C87.63 56 87.4167 55.94 87.25 55.82C87.09 55.6933 86.97 55.5333 86.89 55.34L85.91 52.57H80.13L79.15 55.34C79.0833 55.5067 78.9667 55.66 78.8 55.8C78.6333 55.9333 78.4233 56 78.17 56H75.82L81.49 41.49H84.56L90.22 56ZM93.9234 53.28C94.1834 53.58 94.4634 53.79 94.7634 53.91C95.0701 54.03 95.3968 54.09 95.7434 54.09C96.0768 54.09 96.3801 54.0267 96.6534 53.9C96.9268 53.7733 97.1601 53.5767 97.3534 53.31C97.5534 53.0367 97.7068 52.69 97.8134 52.27C97.9201 51.85 97.9734 51.35 97.9734 50.77C97.9734 50.1967 97.9268 49.71 97.8334 49.31C97.7468 48.91 97.6201 48.5867 97.4534 48.34C97.2934 48.0933 97.0968 47.9167 96.8634 47.81C96.6301 47.6967 96.3701 47.64 96.0834 47.64C95.5968 47.64 95.1868 47.7367 94.8534 47.93C94.5268 48.1167 94.2168 48.3933 93.9234 48.76V53.28ZM93.7634 47.04C93.9701 46.8133 94.1901 46.6067 94.4234 46.42C94.6568 46.2267 94.9068 46.0633 95.1734 45.93C95.4401 45.79 95.7268 45.6833 96.0334 45.61C96.3401 45.53 96.6734 45.49 97.0334 45.49C97.5868 45.49 98.0934 45.61 98.5534 45.85C99.0201 46.0833 99.4201 46.4267 99.7534 46.88C100.087 47.3267 100.347 47.8767 100.533 48.53C100.72 49.1833 100.813 49.93 100.813 50.77C100.813 51.5433 100.707 52.26 100.493 52.92C100.287 53.5733 99.9901 54.14 99.6034 54.62C99.2168 55.1 98.7501 55.4767 98.2034 55.75C97.6634 56.0167 97.0601 56.15 96.3934 56.15C95.8334 56.15 95.3568 56.0667 94.9634 55.9C94.5768 55.7333 94.2301 55.5067 93.9234 55.22V59.33H91.1634V45.69H92.8634C93.2101 45.69 93.4401 45.85 93.5534 46.17L93.7634 47.04ZM105.349 53.28C105.609 53.58 105.889 53.79 106.189 53.91C106.496 54.03 106.823 54.09 107.169 54.09C107.503 54.09 107.806 54.0267 108.079 53.9C108.353 53.7733 108.586 53.5767 108.779 53.31C108.979 53.0367 109.133 52.69 109.239 52.27C109.346 51.85 109.399 51.35 109.399 50.77C109.399 50.1967 109.353 49.71 109.259 49.31C109.173 48.91 109.046 48.5867 108.879 48.34C108.719 48.0933 108.523 47.9167 108.289 47.81C108.056 47.6967 107.796 47.64 107.509 47.64C107.023 47.64 106.613 47.7367 106.279 47.93C105.953 48.1167 105.643 48.3933 105.349 48.76V53.28ZM105.189 47.04C105.396 46.8133 105.616 46.6067 105.849 46.42C106.083 46.2267 106.333 46.0633 106.599 45.93C106.866 45.79 107.153 45.6833 107.459 45.61C107.766 45.53 108.099 45.49 108.459 45.49C109.013 45.49 109.519 45.61 109.979 45.85C110.446 46.0833 110.846 46.4267 111.179 46.88C111.513 47.3267 111.773 47.8767 111.959 48.53C112.146 49.1833 112.239 49.93 112.239 50.77C112.239 51.5433 112.133 52.26 111.919 52.92C111.713 53.5733 111.416 54.14 111.029 54.62C110.643 55.1 110.176 55.4767 109.629 55.75C109.089 56.0167 108.486 56.15 107.819 56.15C107.259 56.15 106.783 56.0667 106.389 55.9C106.003 55.7333 105.656 55.5067 105.349 55.22V59.33H102.589V45.69H104.289C104.636 45.69 104.866 45.85 104.979 46.17L105.189 47.04ZM127.001 44.27C126.908 44.4233 126.811 44.5367 126.711 44.61C126.618 44.6767 126.494 44.71 126.341 44.71C126.194 44.71 126.034 44.66 125.861 44.56C125.694 44.4533 125.498 44.34 125.271 44.22C125.044 44.1 124.784 43.99 124.491 43.89C124.198 43.7833 123.854 43.73 123.461 43.73C122.768 43.73 122.248 43.8867 121.901 44.2C121.554 44.5067 121.381 44.91 121.381 45.41C121.381 45.73 121.474 45.9967 121.661 46.21C121.854 46.4167 122.104 46.5967 122.411 46.75C122.724 46.9033 123.078 47.04 123.471 47.16C123.864 47.28 124.268 47.4133 124.681 47.56C125.094 47.7 125.498 47.8667 125.891 48.06C126.284 48.2533 126.634 48.4967 126.941 48.79C127.254 49.0833 127.504 49.4433 127.691 49.87C127.884 50.29 127.981 50.8033 127.981 51.41C127.981 52.07 127.864 52.69 127.631 53.27C127.404 53.8433 127.074 54.3467 126.641 54.78C126.208 55.2067 125.671 55.5433 125.031 55.79C124.398 56.0367 123.678 56.16 122.871 56.16C122.411 56.16 121.951 56.1133 121.491 56.02C121.038 55.9267 120.598 55.7967 120.171 55.63C119.751 55.4633 119.354 55.2633 118.981 55.03C118.608 54.7967 118.281 54.5367 118.001 54.25L118.881 52.83C118.954 52.7233 119.051 52.6367 119.171 52.57C119.291 52.4967 119.418 52.46 119.551 52.46C119.731 52.46 119.921 52.5267 120.121 52.66C120.321 52.7933 120.551 52.94 120.811 53.1C121.071 53.26 121.371 53.4067 121.711 53.54C122.058 53.6733 122.471 53.74 122.951 53.74C123.651 53.74 124.191 53.58 124.571 53.26C124.958 52.94 125.151 52.4633 125.151 51.83C125.151 51.4633 125.054 51.1667 124.861 50.94C124.674 50.7133 124.428 50.5233 124.121 50.37C123.814 50.2167 123.464 50.0867 123.071 49.98C122.678 49.8667 122.274 49.7433 121.861 49.61C121.448 49.4767 121.044 49.3167 120.651 49.13C120.258 48.9433 119.908 48.6967 119.601 48.39C119.294 48.0833 119.044 47.7033 118.851 47.25C118.664 46.7967 118.571 46.2333 118.571 45.56C118.571 45.02 118.678 44.4967 118.891 43.99C119.104 43.4833 119.418 43.0333 119.831 42.64C120.244 42.2467 120.751 41.93 121.351 41.69C121.958 41.45 122.651 41.33 123.431 41.33C124.304 41.33 125.111 41.4667 125.851 41.74C126.598 42.0067 127.228 42.38 127.741 42.86L127.001 44.27ZM132.888 56.16C132.421 56.16 132.008 56.0933 131.648 55.96C131.288 55.82 130.984 55.6233 130.738 55.37C130.491 55.1167 130.304 54.81 130.178 54.45C130.051 54.09 129.988 53.6833 129.988 53.23V47.67H129.018C128.871 47.67 128.744 47.6233 128.638 47.53C128.538 47.4367 128.488 47.2967 128.488 47.11V46.03L130.138 45.73L130.698 43.06C130.771 42.76 130.974 42.61 131.308 42.61H132.748V45.75H135.408V47.67H132.748V53.05C132.748 53.3367 132.814 53.5633 132.948 53.73C133.088 53.8967 133.284 53.98 133.538 53.98C133.671 53.98 133.784 53.9667 133.878 53.94C133.971 53.9067 134.051 53.8733 134.118 53.84C134.184 53.8 134.244 53.7667 134.298 53.74C134.358 53.7067 134.418 53.69 134.478 53.69C134.558 53.69 134.624 53.71 134.678 53.75C134.731 53.7833 134.784 53.8433 134.838 53.93L135.668 55.25C135.288 55.55 134.858 55.7767 134.378 55.93C133.898 56.0833 133.401 56.16 132.888 56.16ZM141.438 45.53C142.212 45.53 142.915 45.6533 143.548 45.9C144.182 46.1467 144.725 46.5 145.178 46.96C145.632 47.4133 145.982 47.9667 146.228 48.62C146.475 49.2733 146.598 50.01 146.598 50.83C146.598 51.65 146.475 52.39 146.228 53.05C145.982 53.7033 145.632 54.26 145.178 54.72C144.725 55.18 144.182 55.5333 143.548 55.78C142.915 56.0267 142.212 56.15 141.438 56.15C140.658 56.15 139.948 56.0267 139.308 55.78C138.675 55.5333 138.132 55.18 137.678 54.72C137.225 54.26 136.872 53.7033 136.618 53.05C136.372 52.39 136.248 51.65 136.248 50.83C136.248 50.01 136.372 49.2733 136.618 48.62C136.872 47.9667 137.225 47.4133 137.678 46.96C138.132 46.5 138.675 46.1467 139.308 45.9C139.948 45.6533 140.658 45.53 141.438 45.53ZM141.438 54.08C142.225 54.08 142.808 53.81 143.188 53.27C143.568 52.7233 143.758 51.9133 143.758 50.84C143.758 49.7733 143.568 48.97 143.188 48.43C142.808 47.8833 142.225 47.61 141.438 47.61C140.632 47.61 140.038 47.8833 139.658 48.43C139.278 48.97 139.088 49.7733 139.088 50.84C139.088 51.9133 139.278 52.7233 139.658 53.27C140.038 53.81 140.632 54.08 141.438 54.08ZM150.921 47.39C151.248 46.8033 151.625 46.34 152.051 46C152.478 45.66 152.978 45.49 153.551 45.49C154.018 45.49 154.398 45.6 154.691 45.82L154.511 47.86C154.478 47.9933 154.425 48.0867 154.351 48.14C154.285 48.1867 154.191 48.21 154.071 48.21C153.965 48.21 153.811 48.1967 153.611 48.17C153.411 48.1367 153.225 48.12 153.051 48.12C152.798 48.12 152.571 48.1567 152.371 48.23C152.178 48.3033 152.005 48.4067 151.851 48.54C151.698 48.6733 151.558 48.8367 151.431 49.03C151.311 49.2233 151.198 49.4433 151.091 49.69V56H148.331V45.69H149.961C150.241 45.69 150.435 45.74 150.541 45.84C150.648 45.94 150.725 46.1133 150.771 46.36L150.921 47.39ZM162.176 49.63C162.176 49.3433 162.136 49.07 162.056 48.81C161.983 48.55 161.863 48.32 161.696 48.12C161.529 47.92 161.319 47.7633 161.066 47.65C160.813 47.53 160.509 47.47 160.156 47.47C159.496 47.47 158.979 47.6567 158.606 48.03C158.233 48.4033 157.989 48.9367 157.876 49.63H162.176ZM157.836 51.27C157.923 52.2367 158.196 52.9433 158.656 53.39C159.123 53.8367 159.729 54.06 160.476 54.06C160.856 54.06 161.183 54.0167 161.456 53.93C161.736 53.8367 161.979 53.7367 162.186 53.63C162.399 53.5167 162.589 53.4167 162.756 53.33C162.929 53.2367 163.099 53.19 163.266 53.19C163.479 53.19 163.646 53.27 163.766 53.43L164.566 54.43C164.273 54.77 163.949 55.0533 163.596 55.28C163.243 55.5 162.876 55.6767 162.496 55.81C162.116 55.9367 161.733 56.0233 161.346 56.07C160.959 56.1233 160.586 56.15 160.226 56.15C159.506 56.15 158.833 56.0333 158.206 55.8C157.586 55.56 157.043 55.21 156.576 54.75C156.116 54.2833 155.753 53.7067 155.486 53.02C155.219 52.3333 155.086 51.5367 155.086 50.63C155.086 49.93 155.199 49.27 155.426 48.65C155.659 48.03 155.993 47.49 156.426 47.03C156.859 46.57 157.386 46.2067 158.006 45.94C158.626 45.6667 159.326 45.53 160.106 45.53C160.766 45.53 161.373 45.6367 161.926 45.85C162.486 46.0567 162.966 46.36 163.366 46.76C163.773 47.16 164.086 47.6533 164.306 48.24C164.533 48.82 164.646 49.4833 164.646 50.23C164.646 50.4367 164.636 50.6067 164.616 50.74C164.596 50.8733 164.563 50.98 164.516 51.06C164.469 51.14 164.406 51.1967 164.326 51.23C164.246 51.2567 164.143 51.27 164.016 51.27H157.836Z" fill="white"/>
<path d="M84.55 21.704C84.55 22.348 84.448 22.934 84.244 23.462C84.04 23.99 83.752 24.442 83.38 24.818C83.008 25.194 82.56 25.486 82.036 25.694C81.516 25.898 80.94 26 80.308 26H77.098V17.402H80.308C80.94 17.402 81.516 17.506 82.036 17.714C82.56 17.918 83.008 18.21 83.38 18.59C83.752 18.966 84.04 19.418 84.244 19.946C84.448 20.474 84.55 21.06 84.55 21.704ZM83.356 21.704C83.356 21.176 83.284 20.704 83.14 20.288C82.996 19.872 82.792 19.52 82.528 19.232C82.264 18.944 81.944 18.724 81.568 18.572C81.192 18.42 80.772 18.344 80.308 18.344H78.262V25.058H80.308C80.772 25.058 81.192 24.982 81.568 24.83C81.944 24.678 82.264 24.46 82.528 24.176C82.792 23.888 82.996 23.536 83.14 23.12C83.284 22.704 83.356 22.232 83.356 21.704ZM88.4549 19.826C88.8989 19.826 89.2989 19.9 89.6549 20.048C90.0109 20.196 90.3149 20.406 90.5669 20.678C90.8189 20.95 91.0109 21.28 91.1429 21.668C91.2789 22.052 91.3469 22.482 91.3469 22.958C91.3469 23.438 91.2789 23.87 91.1429 24.254C91.0109 24.638 90.8189 24.966 90.5669 25.238C90.3149 25.51 90.0109 25.72 89.6549 25.868C89.2989 26.012 88.8989 26.084 88.4549 26.084C88.0069 26.084 87.6029 26.012 87.2429 25.868C86.8869 25.72 86.5829 25.51 86.3309 25.238C86.0789 24.966 85.8849 24.638 85.7489 24.254C85.6169 23.87 85.5509 23.438 85.5509 22.958C85.5509 22.482 85.6169 22.052 85.7489 21.668C85.8849 21.28 86.0789 20.95 86.3309 20.678C86.5829 20.406 86.8869 20.196 87.2429 20.048C87.6029 19.9 88.0069 19.826 88.4549 19.826ZM88.4549 25.25C89.0549 25.25 89.5029 25.05 89.7989 24.65C90.0949 24.246 90.2429 23.684 90.2429 22.964C90.2429 22.24 90.0949 21.676 89.7989 21.272C89.5029 20.868 89.0549 20.666 88.4549 20.666C88.1509 20.666 87.8849 20.718 87.6569 20.822C87.4329 20.926 87.2449 21.076 87.0929 21.272C86.9449 21.468 86.8329 21.71 86.7569 21.998C86.6849 22.282 86.6489 22.604 86.6489 22.964C86.6489 23.684 86.7969 24.246 87.0929 24.65C87.3929 25.05 87.8469 25.25 88.4549 25.25ZM100.99 19.922L99.0217 26H98.1757C98.0717 26 97.9997 25.932 97.9597 25.796L96.6157 21.674C96.5837 21.582 96.5577 21.49 96.5377 21.398C96.5177 21.302 96.4977 21.208 96.4777 21.116C96.4577 21.208 96.4377 21.302 96.4177 21.398C96.3977 21.49 96.3717 21.584 96.3397 21.68L94.9717 25.796C94.9357 25.932 94.8557 26 94.7317 26H93.9277L91.9597 19.922H92.7997C92.8837 19.922 92.9537 19.944 93.0097 19.988C93.0697 20.032 93.1097 20.084 93.1297 20.144L94.2937 24.056C94.3617 24.344 94.4157 24.616 94.4557 24.872C94.4917 24.74 94.5277 24.606 94.5637 24.47C94.6037 24.334 94.6457 24.196 94.6897 24.056L95.9737 20.12C95.9937 20.06 96.0277 20.01 96.0757 19.97C96.1277 19.93 96.1897 19.91 96.2617 19.91H96.7297C96.8097 19.91 96.8757 19.93 96.9277 19.97C96.9797 20.01 97.0157 20.06 97.0357 20.12L98.2897 24.056C98.3337 24.196 98.3737 24.334 98.4097 24.47C98.4457 24.606 98.4797 24.74 98.5117 24.872C98.5317 24.74 98.5557 24.608 98.5837 24.476C98.6157 24.34 98.6497 24.2 98.6857 24.056L99.8737 20.144C99.8937 20.08 99.9317 20.028 99.9877 19.988C100.044 19.944 100.11 19.922 100.186 19.922H100.99ZM103.038 20.804C103.17 20.656 103.31 20.522 103.458 20.402C103.606 20.282 103.762 20.18 103.926 20.096C104.094 20.008 104.27 19.942 104.454 19.898C104.642 19.85 104.844 19.826 105.06 19.826C105.392 19.826 105.684 19.882 105.936 19.994C106.192 20.102 106.404 20.258 106.572 20.462C106.744 20.662 106.874 20.904 106.962 21.188C107.05 21.472 107.094 21.786 107.094 22.13V26H106.02V22.13C106.02 21.67 105.914 21.314 105.702 21.062C105.494 20.806 105.176 20.678 104.748 20.678C104.432 20.678 104.136 20.754 103.86 20.906C103.588 21.058 103.336 21.264 103.104 21.524V26H102.03V19.922H102.672C102.824 19.922 102.918 19.996 102.954 20.144L103.038 20.804ZM109.825 17.162V26H108.757V17.162H109.825ZM114.119 19.826C114.563 19.826 114.963 19.9 115.319 20.048C115.675 20.196 115.979 20.406 116.231 20.678C116.483 20.95 116.675 21.28 116.807 21.668C116.943 22.052 117.011 22.482 117.011 22.958C117.011 23.438 116.943 23.87 116.807 24.254C116.675 24.638 116.483 24.966 116.231 25.238C115.979 25.51 115.675 25.72 115.319 25.868C114.963 26.012 114.563 26.084 114.119 26.084C113.671 26.084 113.267 26.012 112.907 25.868C112.551 25.72 112.247 25.51 111.995 25.238C111.743 24.966 111.549 24.638 111.413 24.254C111.281 23.87 111.215 23.438 111.215 22.958C111.215 22.482 111.281 22.052 111.413 21.668C111.549 21.28 111.743 20.95 111.995 20.678C112.247 20.406 112.551 20.196 112.907 20.048C113.267 19.9 113.671 19.826 114.119 19.826ZM114.119 25.25C114.719 25.25 115.167 25.05 115.463 24.65C115.759 24.246 115.907 23.684 115.907 22.964C115.907 22.24 115.759 21.676 115.463 21.272C115.167 20.868 114.719 20.666 114.119 20.666C113.815 20.666 113.549 20.718 113.321 20.822C113.097 20.926 112.909 21.076 112.757 21.272C112.609 21.468 112.497 21.71 112.421 21.998C112.349 22.282 112.313 22.604 112.313 22.964C112.313 23.684 112.461 24.246 112.757 24.65C113.057 25.05 113.511 25.25 114.119 25.25ZM121.66 23.264C121.168 23.28 120.748 23.32 120.4 23.384C120.056 23.444 119.774 23.524 119.554 23.624C119.338 23.724 119.18 23.842 119.08 23.978C118.984 24.114 118.936 24.266 118.936 24.434C118.936 24.594 118.962 24.732 119.014 24.848C119.066 24.964 119.136 25.06 119.224 25.136C119.316 25.208 119.422 25.262 119.542 25.298C119.666 25.33 119.798 25.346 119.938 25.346C120.126 25.346 120.298 25.328 120.454 25.292C120.61 25.252 120.756 25.196 120.892 25.124C121.032 25.052 121.164 24.966 121.288 24.866C121.416 24.766 121.54 24.652 121.66 24.524V23.264ZM118.21 20.78C118.546 20.456 118.908 20.214 119.296 20.054C119.684 19.894 120.114 19.814 120.586 19.814C120.926 19.814 121.228 19.87 121.492 19.982C121.756 20.094 121.978 20.25 122.158 20.45C122.338 20.65 122.474 20.892 122.566 21.176C122.658 21.46 122.704 21.772 122.704 22.112V26H122.23C122.126 26 122.046 25.984 121.99 25.952C121.934 25.916 121.89 25.848 121.858 25.748L121.738 25.172C121.578 25.32 121.422 25.452 121.27 25.568C121.118 25.68 120.958 25.776 120.79 25.856C120.622 25.932 120.442 25.99 120.25 26.03C120.062 26.074 119.852 26.096 119.62 26.096C119.384 26.096 119.162 26.064 118.954 26C118.746 25.932 118.564 25.832 118.408 25.7C118.256 25.568 118.134 25.402 118.042 25.202C117.954 24.998 117.91 24.758 117.91 24.482C117.91 24.242 117.976 24.012 118.108 23.792C118.24 23.568 118.454 23.37 118.75 23.198C119.046 23.026 119.432 22.886 119.908 22.778C120.384 22.666 120.968 22.602 121.66 22.586V22.112C121.66 21.64 121.558 21.284 121.354 21.044C121.15 20.8 120.852 20.678 120.46 20.678C120.196 20.678 119.974 20.712 119.794 20.78C119.618 20.844 119.464 20.918 119.332 21.002C119.204 21.082 119.092 21.156 118.996 21.224C118.904 21.288 118.812 21.32 118.72 21.32C118.648 21.32 118.586 21.302 118.534 21.266C118.482 21.226 118.438 21.178 118.402 21.122L118.21 20.78ZM128.29 21.368C128.09 21.1 127.874 20.914 127.642 20.81C127.41 20.702 127.15 20.648 126.862 20.648C126.298 20.648 125.864 20.85 125.56 21.254C125.256 21.658 125.104 22.234 125.104 22.982C125.104 23.378 125.138 23.718 125.206 24.002C125.274 24.282 125.374 24.514 125.506 24.698C125.638 24.878 125.8 25.01 125.992 25.094C126.184 25.178 126.402 25.22 126.646 25.22C126.998 25.22 127.304 25.14 127.564 24.98C127.828 24.82 128.07 24.594 128.29 24.302V21.368ZM129.358 17.162V26H128.722C128.57 26 128.474 25.926 128.434 25.778L128.338 25.04C128.078 25.352 127.782 25.604 127.45 25.796C127.118 25.988 126.734 26.084 126.298 26.084C125.95 26.084 125.634 26.018 125.35 25.886C125.066 25.75 124.824 25.552 124.624 25.292C124.424 25.032 124.27 24.708 124.162 24.32C124.054 23.932 124 23.486 124 22.982C124 22.534 124.06 22.118 124.18 21.734C124.3 21.346 124.472 21.01 124.696 20.726C124.92 20.442 125.194 20.22 125.518 20.06C125.846 19.896 126.214 19.814 126.622 19.814C126.994 19.814 127.312 19.878 127.576 20.006C127.844 20.13 128.082 20.304 128.29 20.528V17.162H129.358ZM136.678 19.826C137.122 19.826 137.522 19.9 137.878 20.048C138.234 20.196 138.538 20.406 138.79 20.678C139.042 20.95 139.234 21.28 139.366 21.668C139.502 22.052 139.57 22.482 139.57 22.958C139.57 23.438 139.502 23.87 139.366 24.254C139.234 24.638 139.042 24.966 138.79 25.238C138.538 25.51 138.234 25.72 137.878 25.868C137.522 26.012 137.122 26.084 136.678 26.084C136.23 26.084 135.826 26.012 135.466 25.868C135.11 25.72 134.806 25.51 134.554 25.238C134.302 24.966 134.108 24.638 133.972 24.254C133.84 23.87 133.774 23.438 133.774 22.958C133.774 22.482 133.84 22.052 133.972 21.668C134.108 21.28 134.302 20.95 134.554 20.678C134.806 20.406 135.11 20.196 135.466 20.048C135.826 19.9 136.23 19.826 136.678 19.826ZM136.678 25.25C137.278 25.25 137.726 25.05 138.022 24.65C138.318 24.246 138.466 23.684 138.466 22.964C138.466 22.24 138.318 21.676 138.022 21.272C137.726 20.868 137.278 20.666 136.678 20.666C136.374 20.666 136.108 20.718 135.88 20.822C135.656 20.926 135.468 21.076 135.316 21.272C135.168 21.468 135.056 21.71 134.98 21.998C134.908 22.282 134.872 22.604 134.872 22.964C134.872 23.684 135.02 24.246 135.316 24.65C135.616 25.05 136.07 25.25 136.678 25.25ZM141.932 20.804C142.064 20.656 142.204 20.522 142.352 20.402C142.5 20.282 142.656 20.18 142.82 20.096C142.988 20.008 143.164 19.942 143.348 19.898C143.536 19.85 143.738 19.826 143.954 19.826C144.286 19.826 144.578 19.882 144.83 19.994C145.086 20.102 145.298 20.258 145.466 20.462C145.638 20.662 145.768 20.904 145.856 21.188C145.944 21.472 145.988 21.786 145.988 22.13V26H144.914V22.13C144.914 21.67 144.808 21.314 144.596 21.062C144.388 20.806 144.07 20.678 143.642 20.678C143.326 20.678 143.03 20.754 142.754 20.906C142.482 21.058 142.23 21.264 141.998 21.524V26H140.924V19.922H141.566C141.718 19.922 141.812 19.996 141.848 20.144L141.932 20.804ZM152.552 26.096C152.072 26.096 151.702 25.962 151.442 25.694C151.186 25.426 151.058 25.04 151.058 24.536V20.816H150.326C150.262 20.816 150.208 20.798 150.164 20.762C150.12 20.722 150.098 20.662 150.098 20.582V20.156L151.094 20.03L151.34 18.152C151.352 18.092 151.378 18.044 151.418 18.008C151.462 17.968 151.518 17.948 151.586 17.948H152.126V20.042H153.884V20.816H152.126V24.464C152.126 24.72 152.188 24.91 152.312 25.034C152.436 25.158 152.596 25.22 152.792 25.22C152.904 25.22 153 25.206 153.08 25.178C153.164 25.146 153.236 25.112 153.296 25.076C153.356 25.04 153.406 25.008 153.446 24.98C153.49 24.948 153.528 24.932 153.56 24.932C153.616 24.932 153.666 24.966 153.71 25.034L154.022 25.544C153.838 25.716 153.616 25.852 153.356 25.952C153.096 26.048 152.828 26.096 152.552 26.096ZM156.061 20.732C156.321 20.456 156.609 20.236 156.925 20.072C157.241 19.908 157.605 19.826 158.017 19.826C158.349 19.826 158.641 19.882 158.893 19.994C159.149 20.102 159.361 20.258 159.529 20.462C159.701 20.662 159.831 20.904 159.919 21.188C160.007 21.472 160.051 21.786 160.051 22.13V26H158.977V22.13C158.977 21.67 158.871 21.314 158.659 21.062C158.451 20.806 158.133 20.678 157.705 20.678C157.389 20.678 157.093 20.754 156.817 20.906C156.545 21.058 156.293 21.264 156.061 21.524V26H154.987V17.162H156.061V20.732ZM165.746 22.298C165.746 22.05 165.71 21.824 165.638 21.62C165.57 21.412 165.468 21.234 165.332 21.086C165.2 20.934 165.038 20.818 164.846 20.738C164.654 20.654 164.436 20.612 164.192 20.612C163.68 20.612 163.274 20.762 162.974 21.062C162.678 21.358 162.494 21.77 162.422 22.298H165.746ZM166.61 25.148C166.478 25.308 166.32 25.448 166.136 25.568C165.952 25.684 165.754 25.78 165.542 25.856C165.334 25.932 165.118 25.988 164.894 26.024C164.67 26.064 164.448 26.084 164.228 26.084C163.808 26.084 163.42 26.014 163.064 25.874C162.712 25.73 162.406 25.522 162.146 25.25C161.89 24.974 161.69 24.634 161.546 24.23C161.402 23.826 161.33 23.362 161.33 22.838C161.33 22.414 161.394 22.018 161.522 21.65C161.654 21.282 161.842 20.964 162.086 20.696C162.33 20.424 162.628 20.212 162.98 20.06C163.332 19.904 163.728 19.826 164.168 19.826C164.532 19.826 164.868 19.888 165.176 20.012C165.488 20.132 165.756 20.308 165.98 20.54C166.208 20.768 166.386 21.052 166.514 21.392C166.642 21.728 166.706 22.112 166.706 22.544C166.706 22.712 166.688 22.824 166.652 22.88C166.616 22.936 166.548 22.964 166.448 22.964H162.386C162.398 23.348 162.45 23.682 162.542 23.966C162.638 24.25 162.77 24.488 162.938 24.68C163.106 24.868 163.306 25.01 163.538 25.106C163.77 25.198 164.03 25.244 164.318 25.244C164.586 25.244 164.816 25.214 165.008 25.154C165.204 25.09 165.372 25.022 165.512 24.95C165.652 24.878 165.768 24.812 165.86 24.752C165.956 24.688 166.038 24.656 166.106 24.656C166.194 24.656 166.262 24.69 166.31 24.758L166.61 25.148Z" fill="white"/>
<path d="M49.0824 36.0809C49.0664 32.9674 50.3895 30.6174 53.0675 28.8867C51.5691 26.6046 49.3055 25.349 46.3167 25.103C43.4872 24.8655 40.3948 26.8591 39.263 26.8591C38.0675 26.8591 35.3257 25.1878 33.1738 25.1878C28.7264 25.2642 24 28.9631 24 36.4881C24 38.7108 24.3826 41.0071 25.1477 43.3769C26.1679 46.4904 29.8502 54.1257 33.6918 53.9984C35.7003 53.9475 37.119 52.4798 39.7333 52.4798C42.2678 52.4798 43.5829 53.9984 45.8225 53.9984C49.6961 53.939 53.0276 46.9994 54 43.8774C48.8034 41.2729 49.0824 36.2421 49.0824 36.0809ZM44.5712 22.1507C46.7471 19.402 46.5478 16.8993 46.4841 16C44.5632 16.1188 42.3395 17.3913 41.0723 18.9608C39.6775 20.6406 38.8565 22.7191 39.0319 25.0606C41.1121 25.2303 43.009 24.0934 44.5712 22.1507Z" fill="white"/>
</svg>
