<svg width="231" height="76" viewBox="0 0 231 76" fill="none" xmlns="http://www.w3.org/2000/svg">
<rect width="231" height="76" rx="12" fill="#232323"/>
<path d="M83.58 48.61H88.56V54.6C87.82 55.14 87.03 55.5367 86.19 55.79C85.3567 56.0367 84.4733 56.16 83.54 56.16C82.3467 56.16 81.2667 55.9767 80.3 55.61C79.3333 55.2367 78.5067 54.72 77.82 54.06C77.1333 53.4 76.6033 52.6167 76.23 51.71C75.8567 50.8033 75.67 49.8133 75.67 48.74C75.67 47.6533 75.8467 46.6567 76.2 45.75C76.56 44.8433 77.07 44.0633 77.73 43.41C78.39 42.7567 79.1867 42.2467 80.12 41.88C81.06 41.5133 82.11 41.33 83.27 41.33C83.87 41.33 84.43 41.38 84.95 41.48C85.47 41.5733 85.95 41.7067 86.39 41.88C86.83 42.0467 87.2333 42.2467 87.6 42.48C87.9667 42.7133 88.3 42.97 88.6 43.25L87.73 44.59C87.5967 44.8033 87.4233 44.9333 87.21 44.98C86.9967 45.0267 86.7633 44.9733 86.51 44.82C86.27 44.6733 86.0333 44.5433 85.8 44.43C85.5733 44.31 85.33 44.2067 85.07 44.12C84.81 44.0333 84.5267 43.9667 84.22 43.92C83.9133 43.8733 83.56 43.85 83.16 43.85C82.4867 43.85 81.8767 43.9667 81.33 44.2C80.7833 44.4333 80.3167 44.7633 79.93 45.19C79.55 45.6167 79.2567 46.13 79.05 46.73C78.8433 47.33 78.74 48 78.74 48.74C78.74 49.54 78.8533 50.2567 79.08 50.89C79.3067 51.5167 79.6267 52.0467 80.04 52.48C80.4533 52.9133 80.9467 53.2433 81.52 53.47C82.1 53.6967 82.7433 53.81 83.45 53.81C83.93 53.81 84.3567 53.7633 84.73 53.67C85.11 53.57 85.48 53.4367 85.84 53.27V50.83H84.2C84.0067 50.83 83.8533 50.78 83.74 50.68C83.6333 50.5733 83.58 50.44 83.58 50.28V48.61ZM95.165 45.53C95.9383 45.53 96.6417 45.6533 97.275 45.9C97.9083 46.1467 98.4517 46.5 98.905 46.96C99.3583 47.4133 99.7083 47.9667 99.955 48.62C100.202 49.2733 100.325 50.01 100.325 50.83C100.325 51.65 100.202 52.39 99.955 53.05C99.7083 53.7033 99.3583 54.26 98.905 54.72C98.4517 55.18 97.9083 55.5333 97.275 55.78C96.6417 56.0267 95.9383 56.15 95.165 56.15C94.385 56.15 93.675 56.0267 93.035 55.78C92.4017 55.5333 91.8583 55.18 91.405 54.72C90.9517 54.26 90.5983 53.7033 90.345 53.05C90.0983 52.39 89.975 51.65 89.975 50.83C89.975 50.01 90.0983 49.2733 90.345 48.62C90.5983 47.9667 90.9517 47.4133 91.405 46.96C91.8583 46.5 92.4017 46.1467 93.035 45.9C93.675 45.6533 94.385 45.53 95.165 45.53ZM95.165 54.08C95.9517 54.08 96.535 53.81 96.915 53.27C97.295 52.7233 97.485 51.9133 97.485 50.84C97.485 49.7733 97.295 48.97 96.915 48.43C96.535 47.8833 95.9517 47.61 95.165 47.61C94.3583 47.61 93.765 47.8833 93.385 48.43C93.005 48.97 92.815 49.7733 92.815 50.84C92.815 51.9133 93.005 52.7233 93.385 53.27C93.765 53.81 94.3583 54.08 95.165 54.08ZM106.708 45.53C107.481 45.53 108.185 45.6533 108.818 45.9C109.451 46.1467 109.995 46.5 110.448 46.96C110.901 47.4133 111.251 47.9667 111.498 48.62C111.745 49.2733 111.868 50.01 111.868 50.83C111.868 51.65 111.745 52.39 111.498 53.05C111.251 53.7033 110.901 54.26 110.448 54.72C109.995 55.18 109.451 55.5333 108.818 55.78C108.185 56.0267 107.481 56.15 106.708 56.15C105.928 56.15 105.218 56.0267 104.578 55.78C103.945 55.5333 103.401 55.18 102.948 54.72C102.495 54.26 102.141 53.7033 101.888 53.05C101.641 52.39 101.518 51.65 101.518 50.83C101.518 50.01 101.641 49.2733 101.888 48.62C102.141 47.9667 102.495 47.4133 102.948 46.96C103.401 46.5 103.945 46.1467 104.578 45.9C105.218 45.6533 105.928 45.53 106.708 45.53ZM106.708 54.08C107.495 54.08 108.078 53.81 108.458 53.27C108.838 52.7233 109.028 51.9133 109.028 50.84C109.028 49.7733 108.838 48.97 108.458 48.43C108.078 47.8833 107.495 47.61 106.708 47.61C105.901 47.61 105.308 47.8833 104.928 48.43C104.548 48.97 104.358 49.7733 104.358 50.84C104.358 51.9133 104.548 52.7233 104.928 53.27C105.308 53.81 105.901 54.08 106.708 54.08ZM117.343 50.46C117.91 50.46 118.327 50.3167 118.593 50.03C118.867 49.7433 119.003 49.3733 119.003 48.92C119.003 48.4467 118.867 48.0767 118.593 47.81C118.327 47.5367 117.91 47.4 117.343 47.4C116.777 47.4 116.36 47.5367 116.093 47.81C115.827 48.0767 115.693 48.4467 115.693 48.92C115.693 49.3667 115.827 49.7367 116.093 50.03C116.367 50.3167 116.783 50.46 117.343 50.46ZM119.953 56.42C119.953 56.24 119.897 56.0933 119.783 55.98C119.67 55.8667 119.517 55.7767 119.323 55.71C119.137 55.6433 118.913 55.5967 118.653 55.57C118.393 55.5367 118.117 55.5133 117.823 55.5C117.53 55.48 117.227 55.4633 116.913 55.45C116.6 55.4367 116.293 55.4133 115.993 55.38C115.76 55.52 115.567 55.6867 115.413 55.88C115.267 56.0667 115.193 56.28 115.193 56.52C115.193 56.6867 115.23 56.84 115.303 56.98C115.383 57.12 115.513 57.24 115.693 57.34C115.873 57.44 116.11 57.5167 116.403 57.57C116.697 57.63 117.063 57.66 117.503 57.66C117.957 57.66 118.34 57.63 118.653 57.57C118.967 57.51 119.22 57.4233 119.413 57.31C119.607 57.2033 119.743 57.0733 119.823 56.92C119.91 56.7667 119.953 56.6 119.953 56.42ZM122.693 46.03V47.04C122.693 47.2 122.647 47.3267 122.553 47.42C122.467 47.5133 122.32 47.5833 122.113 47.63L121.273 47.8C121.387 48.1267 121.443 48.4767 121.443 48.85C121.443 49.3633 121.337 49.8267 121.123 50.24C120.917 50.6467 120.63 50.9967 120.263 51.29C119.897 51.5767 119.463 51.8 118.963 51.96C118.463 52.1133 117.923 52.19 117.343 52.19C116.977 52.19 116.633 52.16 116.313 52.1C116.033 52.2733 115.893 52.4633 115.893 52.67C115.893 52.8633 115.987 53.0033 116.173 53.09C116.367 53.1767 116.617 53.24 116.923 53.28C117.237 53.3133 117.59 53.3367 117.983 53.35C118.383 53.3567 118.787 53.3767 119.193 53.41C119.607 53.4433 120.01 53.5033 120.403 53.59C120.803 53.67 121.157 53.8067 121.463 54C121.777 54.1867 122.027 54.4367 122.213 54.75C122.407 55.0633 122.503 55.4667 122.503 55.96C122.503 56.42 122.39 56.8667 122.163 57.3C121.937 57.7333 121.607 58.12 121.173 58.46C120.747 58.8 120.22 59.0733 119.593 59.28C118.967 59.4867 118.253 59.59 117.453 59.59C116.66 59.59 115.97 59.5133 115.383 59.36C114.803 59.2133 114.32 59.0133 113.933 58.76C113.553 58.5133 113.27 58.2267 113.083 57.9C112.897 57.5733 112.803 57.2333 112.803 56.88C112.803 56.42 112.943 56.03 113.223 55.71C113.503 55.39 113.89 55.1333 114.383 54.94C114.123 54.7933 113.913 54.6033 113.753 54.37C113.6 54.13 113.523 53.82 113.523 53.44C113.523 53.1333 113.633 52.81 113.853 52.47C114.08 52.13 114.427 51.8467 114.893 51.62C114.367 51.34 113.95 50.9667 113.643 50.5C113.337 50.0267 113.183 49.4767 113.183 48.85C113.183 48.3367 113.287 47.8733 113.493 47.46C113.707 47.0467 114 46.6967 114.373 46.41C114.747 46.1167 115.187 45.8933 115.693 45.74C116.2 45.5867 116.75 45.51 117.343 45.51C118.223 45.51 119 45.6833 119.673 46.03H122.693ZM126.908 41.09V56H124.148V41.09H126.908ZM135.746 49.63C135.746 49.3433 135.706 49.07 135.626 48.81C135.553 48.55 135.433 48.32 135.266 48.12C135.1 47.92 134.89 47.7633 134.636 47.65C134.383 47.53 134.08 47.47 133.726 47.47C133.066 47.47 132.55 47.6567 132.176 48.03C131.803 48.4033 131.56 48.9367 131.446 49.63H135.746ZM131.406 51.27C131.493 52.2367 131.766 52.9433 132.226 53.39C132.693 53.8367 133.3 54.06 134.046 54.06C134.426 54.06 134.753 54.0167 135.026 53.93C135.306 53.8367 135.55 53.7367 135.756 53.63C135.97 53.5167 136.16 53.4167 136.326 53.33C136.5 53.2367 136.67 53.19 136.836 53.19C137.05 53.19 137.216 53.27 137.336 53.43L138.136 54.43C137.843 54.77 137.52 55.0533 137.166 55.28C136.813 55.5 136.446 55.6767 136.066 55.81C135.686 55.9367 135.303 56.0233 134.916 56.07C134.53 56.1233 134.156 56.15 133.796 56.15C133.076 56.15 132.403 56.0333 131.776 55.8C131.156 55.56 130.613 55.21 130.146 54.75C129.686 54.2833 129.323 53.7067 129.056 53.02C128.79 52.3333 128.656 51.5367 128.656 50.63C128.656 49.93 128.77 49.27 128.996 48.65C129.23 48.03 129.563 47.49 129.996 47.03C130.43 46.57 130.956 46.2067 131.576 45.94C132.196 45.6667 132.896 45.53 133.676 45.53C134.336 45.53 134.943 45.6367 135.496 45.85C136.056 46.0567 136.536 46.36 136.936 46.76C137.343 47.16 137.656 47.6533 137.876 48.24C138.103 48.82 138.216 49.4833 138.216 50.23C138.216 50.4367 138.206 50.6067 138.186 50.74C138.166 50.8733 138.133 50.98 138.086 51.06C138.04 51.14 137.976 51.1967 137.896 51.23C137.816 51.2567 137.713 51.27 137.586 51.27H131.406ZM149.955 48.71C150.895 48.71 151.582 48.4833 152.015 48.03C152.455 47.5767 152.675 46.9567 152.675 46.17C152.675 45.81 152.618 45.4833 152.505 45.19C152.398 44.89 152.232 44.6367 152.005 44.43C151.785 44.2167 151.505 44.0533 151.165 43.94C150.825 43.8267 150.422 43.77 149.955 43.77H148.055V48.71H149.955ZM149.955 41.49C150.948 41.49 151.805 41.6067 152.525 41.84C153.252 42.0733 153.848 42.4 154.315 42.82C154.782 43.2333 155.125 43.7267 155.345 44.3C155.572 44.8733 155.685 45.4967 155.685 46.17C155.685 46.8833 155.568 47.5367 155.335 48.13C155.102 48.7233 154.748 49.2333 154.275 49.66C153.802 50.0867 153.205 50.42 152.485 50.66C151.765 50.8933 150.922 51.01 149.955 51.01H148.055V56H145.055V41.49H149.955ZM159.975 41.09V56H157.215V41.09H159.975ZM167.663 51.69C166.989 51.7233 166.429 51.7833 165.983 51.87C165.536 51.95 165.179 52.0567 164.913 52.19C164.653 52.3233 164.466 52.4767 164.353 52.65C164.246 52.8167 164.193 53 164.193 53.2C164.193 53.6 164.303 53.8833 164.523 54.05C164.749 54.2167 165.063 54.3 165.463 54.3C165.923 54.3 166.319 54.22 166.653 54.06C166.993 53.8933 167.329 53.6367 167.663 53.29V51.69ZM162.043 47.12C162.649 46.5733 163.319 46.1667 164.053 45.9C164.786 45.6267 165.579 45.49 166.433 45.49C167.046 45.49 167.593 45.59 168.073 45.79C168.559 45.99 168.969 46.27 169.303 46.63C169.643 46.9833 169.903 47.4067 170.083 47.9C170.263 48.3933 170.353 48.9333 170.353 49.52V56H169.093C168.833 56 168.633 55.9633 168.493 55.89C168.359 55.8167 168.249 55.6633 168.163 55.43L167.943 54.77C167.683 54.9967 167.429 55.1967 167.183 55.37C166.943 55.5433 166.693 55.69 166.433 55.81C166.173 55.9233 165.893 56.01 165.593 56.07C165.299 56.13 164.969 56.16 164.603 56.16C164.149 56.16 163.736 56.1 163.363 55.98C162.989 55.86 162.666 55.6833 162.393 55.45C162.126 55.21 161.919 54.9133 161.773 54.56C161.626 54.2067 161.553 53.8 161.553 53.34C161.553 52.96 161.649 52.58 161.843 52.2C162.036 51.82 162.366 51.4767 162.833 51.17C163.306 50.8567 163.933 50.6 164.713 50.4C165.499 50.1933 166.483 50.0767 167.663 50.05V49.52C167.663 48.8733 167.526 48.4 167.253 48.1C166.979 47.7933 166.586 47.64 166.073 47.64C165.693 47.64 165.376 47.6867 165.123 47.78C164.869 47.8667 164.646 47.9633 164.453 48.07C164.266 48.17 164.089 48.2667 163.923 48.36C163.756 48.4467 163.563 48.49 163.343 48.49C163.149 48.49 162.986 48.4433 162.853 48.35C162.726 48.25 162.619 48.1333 162.533 48L162.043 47.12ZM181.755 45.69L176.195 58.77C176.108 58.9567 176.001 59.0967 175.875 59.19C175.755 59.2833 175.561 59.33 175.295 59.33H173.245L175.195 55.17L171.055 45.69H173.475C173.695 45.69 173.865 45.74 173.985 45.84C174.105 45.94 174.191 46.0567 174.245 46.19L176.205 51.12C176.278 51.3133 176.341 51.51 176.395 51.71C176.455 51.9033 176.511 52.0967 176.565 52.29C176.685 51.8967 176.821 51.5033 176.975 51.11L178.795 46.19C178.848 46.0433 178.945 45.9233 179.085 45.83C179.225 45.7367 179.378 45.69 179.545 45.69H181.755Z" fill="white"/>
<path d="M83.082 21.866V25.166C82.65 25.478 82.188 25.712 81.696 25.868C81.208 26.02 80.672 26.096 80.088 26.096C79.396 26.096 78.772 25.99 78.216 25.778C77.66 25.562 77.184 25.262 76.788 24.878C76.396 24.49 76.094 24.026 75.882 23.486C75.67 22.946 75.564 22.352 75.564 21.704C75.564 21.048 75.666 20.45 75.87 19.91C76.078 19.37 76.372 18.908 76.752 18.524C77.132 18.136 77.594 17.836 78.138 17.624C78.682 17.412 79.29 17.306 79.962 17.306C80.302 17.306 80.618 17.332 80.91 17.384C81.202 17.432 81.472 17.504 81.72 17.6C81.968 17.692 82.198 17.806 82.41 17.942C82.622 18.074 82.82 18.224 83.004 18.392L82.674 18.92C82.622 19 82.554 19.052 82.47 19.076C82.39 19.096 82.3 19.076 82.2 19.016C82.104 18.96 81.994 18.892 81.87 18.812C81.746 18.732 81.594 18.656 81.414 18.584C81.238 18.508 81.028 18.444 80.784 18.392C80.544 18.34 80.258 18.314 79.926 18.314C79.442 18.314 79.004 18.394 78.612 18.554C78.22 18.71 77.886 18.936 77.61 19.232C77.334 19.524 77.122 19.88 76.974 20.3C76.826 20.716 76.752 21.184 76.752 21.704C76.752 22.244 76.828 22.728 76.98 23.156C77.136 23.58 77.356 23.942 77.64 24.242C77.928 24.538 78.276 24.764 78.684 24.92C79.092 25.076 79.55 25.154 80.058 25.154C80.458 25.154 80.812 25.11 81.12 25.022C81.432 24.93 81.736 24.804 82.032 24.644V22.754H80.694C80.618 22.754 80.556 22.732 80.508 22.688C80.464 22.644 80.442 22.59 80.442 22.526V21.866H83.082ZM90.1676 25.052L90.1616 26H84.8636V17.402H90.1616V18.35H86.0276V21.206H89.3756V22.118H86.0276V25.052H90.1676ZM97.6034 18.38H94.8194V26H93.6614V18.38H90.8714V17.402H97.6034V18.38ZM102.75 26H101.586V17.402H102.75V26ZM110.764 18.38H107.98V26H106.822V18.38H104.032V17.402H110.764V18.38ZM122.69 21.704C122.69 22.348 122.588 22.94 122.384 23.48C122.18 24.016 121.892 24.478 121.52 24.866C121.148 25.254 120.7 25.556 120.176 25.772C119.656 25.984 119.08 26.09 118.448 26.09C117.816 26.09 117.24 25.984 116.72 25.772C116.2 25.556 115.754 25.254 115.382 24.866C115.01 24.478 114.722 24.016 114.518 23.48C114.314 22.94 114.212 22.348 114.212 21.704C114.212 21.06 114.314 20.47 114.518 19.934C114.722 19.394 115.01 18.93 115.382 18.542C115.754 18.15 116.2 17.846 116.72 17.63C117.24 17.414 117.816 17.306 118.448 17.306C119.08 17.306 119.656 17.414 120.176 17.63C120.7 17.846 121.148 18.15 121.52 18.542C121.892 18.93 122.18 19.394 122.384 19.934C122.588 20.47 122.69 21.06 122.69 21.704ZM121.496 21.704C121.496 21.176 121.424 20.702 121.28 20.282C121.136 19.862 120.932 19.508 120.668 19.22C120.404 18.928 120.084 18.704 119.708 18.548C119.332 18.392 118.912 18.314 118.448 18.314C117.988 18.314 117.57 18.392 117.194 18.548C116.818 18.704 116.496 18.928 116.228 19.22C115.964 19.508 115.76 19.862 115.616 20.282C115.472 20.702 115.4 21.176 115.4 21.704C115.4 22.232 115.472 22.706 115.616 23.126C115.76 23.542 115.964 23.896 116.228 24.188C116.496 24.476 116.818 24.698 117.194 24.854C117.57 25.006 117.988 25.082 118.448 25.082C118.912 25.082 119.332 25.006 119.708 24.854C120.084 24.698 120.404 24.476 120.668 24.188C120.932 23.896 121.136 23.542 121.28 23.126C121.424 22.706 121.496 22.232 121.496 21.704ZM131.322 17.402V26H130.74C130.648 26 130.57 25.984 130.506 25.952C130.446 25.92 130.386 25.866 130.326 25.79L125.352 19.31C125.36 19.41 125.366 19.508 125.37 19.604C125.374 19.7 125.376 19.79 125.376 19.874V26H124.356V17.402H124.956C125.008 17.402 125.052 17.406 125.088 17.414C125.124 17.418 125.156 17.428 125.184 17.444C125.212 17.456 125.24 17.476 125.268 17.504C125.296 17.528 125.326 17.56 125.358 17.6L130.332 24.074C130.324 23.97 130.316 23.87 130.308 23.774C130.304 23.674 130.302 23.58 130.302 23.492V17.402H131.322Z" fill="white"/>
<path d="M41.9031 38.6466L29.4681 24.8127L45.2894 34.8896L41.9031 38.6466ZM26.2227 24C25.4902 24.4251 25 25.2002 25 26.2067V53.7933C25 54.7998 25.4902 55.5749 26.2227 56L40.6804 39.9969L26.2227 24ZM50.18 38.1028L46.8614 35.9711L43.1596 40.0031L46.8614 44.0352L50.2476 41.9035C51.2618 41.0096 51.2618 38.9967 50.18 38.1028ZM29.4681 55.1936L45.2894 45.1166L41.9031 41.3596L29.4681 55.1936Z" fill="white"/>
</svg>
